<svg width="346" height="432" viewBox="0 0 346 432" fill="none" xmlns="http://www.w3.org/2000/svg">
<path d="M127.312 422.966C93.3663 420.423 64.8469 395.867 55.6479 361.719C44.1796 319.231 46.1902 272.693 62.2507 231.819C83.7964 176.936 130.192 133.318 184.781 116.609C230.268 102.687 286.624 110.812 313.499 151.52C331.028 178.076 332.531 212.351 332.658 244.586C332.795 275.403 332.17 306.709 323.674 336.268C315.177 365.828 297.721 393.778 271.51 408.072C247.929 420.936 220.171 421.528 193.56 421.836C170.257 422.105 148.214 424.532 127.312 422.966Z" fill="#36D6AD"/>
<path d="M89.2842 170.602C101.174 151.792 113.39 141.965 131.895 130.311C139.525 125.503 148.733 119.435 148.309 110.158C147.943 102.14 140.095 96.6457 132.563 94.9254C115.633 91.0683 97.6154 100.022 86.8273 114.123C76.0392 128.223 71.5641 146.612 70.6379 164.603C70.3746 169.568 70.9693 175.64 75.2982 177.767C80.3973 180.272 85.7743 175.17 89.2842 170.582" fill="#36D6AD"/>
<path d="M319.83 365.623C320.367 364.648 320.835 363.637 321.231 362.597C323.613 356.458 325.985 354.751 328.372 347.726C328.685 346.623 329.162 345.572 329.787 344.608C332.125 341.349 337.299 341.403 340.642 343.635C347.094 347.941 347.553 358.054 342.911 364.261C337.957 370.877 328.948 373.45 320.748 373.114C320.336 373.1 319.938 372.96 319.61 372.711C319.281 372.463 319.038 372.12 318.913 371.728C318.195 369.349 318.835 367.418 319.83 365.623Z" fill="#36D6AD"/>
<path d="M337.263 225.107C335.163 239.14 327.285 252.402 315.382 260.156C311.832 262.461 307.631 264.751 306.547 268.857C305.852 271.46 306.62 274.228 307.325 276.806C318.527 318.46 316.292 362.607 300.94 402.905C299.914 405.561 295.927 413.554 295.927 413.554C295.927 413.554 234.368 426.25 215.696 426.45L216.523 420.376L217.447 413.54C218.862 403.012 220.539 390.927 222.392 377.949C233.333 301.084 250.04 192.739 251.115 189.306C254.377 178.828 261.501 208.911 261.788 219.887C263.774 217.255 266.287 215.07 269.166 213.472C272.044 211.874 275.224 210.899 278.5 210.61C275.991 198.921 276.482 190.175 279.9 179.126C279.955 178.942 280.062 178.778 280.209 178.655C280.355 178.532 280.534 178.455 280.724 178.434C280.914 178.412 281.106 178.448 281.276 178.535C281.446 178.623 281.586 178.758 281.68 178.925C288.347 190.503 289.134 200.62 293.102 214.453C293.768 216.762 293.54 219.824 295.786 220.649C297.157 221.137 298.67 220.537 300.002 219.946L323.828 209.399C327.857 207.622 331.89 205.831 335.926 204.028C337.919 210.868 338.376 218.068 337.263 225.107Z" fill="#FFF3DB"/>
<path d="M224.58 390.941C224.58 390.941 212.664 303.69 175.086 274.085C174.594 273.71 175.908 274.085 175.947 274.67C176.867 287.872 181.853 389.002 216.616 420.527L224.58 390.941Z" fill="#FFF3DB"/>
<path d="M337.27 225.071C330.598 221.427 326.2 214.509 323.789 209.622C327.825 207.874 331.864 206.114 335.906 204.341C337.912 211.066 338.377 218.147 337.27 225.071Z" fill="#1A2B60"/>
<path d="M274.143 240.246C275.168 242.872 275.188 245.332 274.186 245.742C273.184 246.152 271.543 244.351 270.522 241.73C269.502 239.109 269.478 236.644 270.479 236.234C271.481 235.824 273.122 237.62 274.143 240.246Z" fill="#1A2B60"/>
<path d="M288.215 233.585C289.235 236.207 289.254 238.669 288.253 239.079C287.251 239.489 285.61 237.692 284.59 235.064C283.569 232.437 283.545 229.975 284.547 229.57C285.548 229.165 287.189 230.957 288.215 233.585Z" fill="#1A2B60"/>
<path d="M311.944 259.128C311.944 259.128 298.145 274.866 286.031 260.451" stroke="#1A2B60" stroke-miterlimit="10" stroke-linecap="round"/>
<path d="M71.2617 419.295C71.2617 419.295 60.5313 307.603 98.1268 226.552L109.296 255.976C114.987 254.305 121.037 254.305 126.728 255.976L138.337 226.552C138.337 226.552 187.428 329.488 178.283 431.633L71.2617 419.295Z" fill="white"/>
<path d="M108.344 271.714C108.344 274.988 107.35 277.637 106.122 277.637C104.895 277.637 103.901 274.988 103.901 271.714C103.901 268.44 104.895 265.791 106.122 265.791C107.35 265.791 108.344 268.426 108.344 271.714Z" fill="#1A2B60"/>
<path d="M122.41 271.714C122.41 274.988 121.581 277.637 120.559 277.637C119.536 277.637 118.708 274.988 118.708 271.714C118.708 268.44 119.536 265.791 120.559 265.791C121.581 265.791 122.41 268.426 122.41 271.714Z" fill="#1A2B60"/>
<path d="M109.824 293.184L72.8057 268.012" stroke="#1A2B60" stroke-width="0.5" stroke-miterlimit="10" stroke-linecap="round"/>
<path d="M109.824 293.185L65.4023 305.03" stroke="#1A2B60" stroke-width="0.5" stroke-miterlimit="10" stroke-linecap="round"/>
<path d="M109.824 293.185L74.2861 288.002" stroke="#1A2B60" stroke-width="0.5" stroke-miterlimit="10" stroke-linecap="round"/>
<path d="M115.007 293.925L163.131 272.454" stroke="#1A2B60" stroke-width="0.5" stroke-miterlimit="10" stroke-linecap="round"/>
<path d="M115.007 293.925L160.169 309.472" stroke="#1A2B60" stroke-width="0.5" stroke-miterlimit="10" stroke-linecap="round"/>
<path d="M115.007 293.925L154.246 289.482" stroke="#1A2B60" stroke-width="0.5" stroke-miterlimit="10" stroke-linecap="round"/>
<path d="M140.455 358.597C157.174 362.023 175.322 358.157 189.084 347.983C195.892 342.942 201.727 336.468 205.535 328.824C209.264 321.219 211.22 312.858 211.254 304.377C211.287 295.897 209.398 287.521 205.73 279.886C203.877 276.104 201.539 272.583 198.776 269.413C195.639 265.816 191.895 262.817 188.038 260.042C180.35 254.507 171.432 249.701 165.805 241.974C163.17 238.357 161.268 234.55 160.587 230.121C160.022 225.997 161.005 221.81 163.345 218.376C168.305 210.85 177.389 207.091 184.493 201.635C188.267 198.733 191.836 195.273 193.859 190.898C195.77 186.748 196.626 181.976 195.43 177.494C194.845 175.358 193.784 173.385 192.328 171.724C191.472 170.745 189.77 170.838 188.889 171.724C188.445 172.189 188.197 172.809 188.197 173.454C188.197 174.099 188.445 174.719 188.889 175.184C189.157 175.474 189.392 175.792 189.59 176.133C189.858 176.563 190.097 177.011 190.305 177.474C190.168 177.166 190.339 177.548 190.353 177.592C190.441 177.827 190.523 178.081 190.601 178.306C190.771 178.873 190.907 179.45 191.01 180.034C191.151 180.822 191.01 179.603 191.053 180.401C191.053 180.572 191.083 180.743 191.092 180.89C191.119 181.408 191.119 181.928 191.092 182.446C191.077 183.373 190.949 184.295 190.713 185.192C189.74 189.263 187.435 192.562 184.255 195.469C177.573 201.61 168.694 205.104 162.343 211.833C159.163 215.205 156.624 219.37 155.875 224.019C155.198 228.629 155.84 233.338 157.728 237.594C159.604 241.896 162.256 245.812 165.548 249.143C168.952 252.677 173.002 255.584 177.034 258.358C181.065 261.133 185.067 263.663 188.821 266.678C190.624 268.114 192.333 269.665 193.937 271.322C194.586 272 195.213 272.7 195.819 273.421C196.563 274.302 196.874 274.708 197.477 275.545C198.666 277.2 199.744 278.931 200.706 280.728C201.572 282.34 202.338 284.003 203.002 285.71C204.442 289.465 205.437 293.377 205.968 297.366C205.919 297.004 205.968 297.43 205.968 297.484C205.997 297.738 206.031 297.973 206.06 298.252C206.114 298.742 206.162 299.275 206.201 299.789C206.286 300.817 206.338 301.848 206.357 302.882C206.405 304.861 206.343 306.841 206.172 308.813C206.128 309.302 206.075 309.841 206.017 310.355C205.987 310.609 205.958 310.844 205.924 311.123C205.978 310.731 205.9 311.275 205.89 311.368C205.735 312.431 205.547 313.488 205.326 314.539C204.925 316.473 204.415 318.383 203.799 320.26C203.502 321.16 203.182 322.046 202.827 322.927C202.472 323.807 202.228 324.395 201.747 325.408C199.198 330.817 195.652 335.689 191.297 339.766C188.421 342.515 185.233 344.913 181.799 346.911C178.402 348.958 174.794 350.626 171.038 351.888C163.427 354.504 155.352 355.463 147.346 354.702C145.471 354.534 143.609 354.253 141.768 353.86C141.147 353.703 140.49 353.793 139.933 354.111C139.376 354.429 138.962 354.951 138.777 355.568C138.447 356.777 139.181 358.313 140.474 358.578L140.455 358.597Z" fill="white"/>
<path d="M234.945 101.452C234.945 101.452 321.153 97.9638 335.635 179.168" stroke="#36D6AD" stroke-width="2" stroke-miterlimit="10" stroke-linecap="round"/>
<path d="M169.82 48.864C164.579 47.5191 159.72 44.9658 155.63 41.4062C151.539 37.8466 148.328 33.3785 146.252 28.3554C144.944 25.1198 144.133 21.5306 144.948 18.1379C145.764 14.7452 148.561 11.6667 152.023 11.4212C154.684 11.2297 157.248 12.7027 159.025 14.701C160.802 16.6993 161.954 19.1838 163.033 21.624C161.276 17.2051 159.493 12.467 160.372 7.78297C161.251 3.09894 165.982 -1.17758 170.494 0.29539C174.4 1.56705 176.045 6.11361 176.919 10.1152C179.737 23.092 179.649 37.3405 173.082 48.8591" fill="#FC7071"/>
<path d="M209.702 53.5378C207.095 50.7575 205.178 47.414 204.102 43.7721C203.027 40.1302 202.822 36.29 203.504 32.556C203.958 30.161 204.843 27.7513 206.622 26.0714C208.402 24.3915 211.244 23.6519 213.394 24.8225C215.05 25.7237 216.014 27.5603 216.305 29.4067C216.597 31.2532 216.305 33.1388 216.053 34.9852C216.696 31.7234 217.437 28.2754 219.75 25.8608C222.064 23.4462 226.502 22.7459 228.647 25.3221C230.476 27.5456 229.73 30.8418 228.717 33.5306C225.44 42.2094 219.958 50.5306 211.654 54.7867" fill="#FCF0E3"/>
<path d="M194.508 91.2136C192.181 92.5033 189.598 93.2109 186.963 93.2802C184.327 93.3495 181.713 92.7787 179.326 91.6129C177.802 90.8538 176.335 89.7939 175.54 88.246C174.745 86.6982 174.726 84.5983 175.895 83.3166C176.372 82.8553 176.943 82.5114 177.564 82.3101C178.186 82.1088 178.843 82.0552 179.487 82.1533C180.773 82.3589 182.021 82.7679 183.188 83.366C181.115 82.3111 178.929 81.1576 177.717 79.1069C176.506 77.0563 176.813 73.8472 178.919 72.8564C180.736 71.9987 182.819 73.1275 184.442 74.3352C189.691 78.2147 194.314 83.5631 195.706 90.1094" fill="#36D6AD"/>
<path d="M42.4521 264.393C36.8443 272.786 15.8608 336.436 63.6676 401.609" stroke="#36D6AD" stroke-width="2" stroke-miterlimit="10" stroke-linecap="round"/>
</svg>
