<svg width="56" height="56" viewBox="0 0 56 56" fill="none" xmlns="http://www.w3.org/2000/svg">
<circle cx="28" cy="28" r="27" fill="white" stroke="#36D6AD" stroke-width="2"/>
<path d="M28.7 23.7994C26.6576 23.7994 24.6992 22.9882 23.2552 21.5442C21.8112 20.1002 21 18.1418 21 16.0994C21 14.057 21.8112 12.0986 23.2552 10.6546C24.6992 9.21061 26.6576 8.39941 28.7 8.39941C30.7424 8.39941 32.7008 9.21061 34.1448 10.6546C35.5888 12.0986 36.3999 14.057 36.3999 16.0994C36.3975 18.141 35.5856 20.0978 34.1424 21.5418C32.6984 22.985 30.7416 23.7978 28.7 23.7994ZM28.7 9.79941C27.0288 9.79941 25.4264 10.4634 24.2448 11.645C23.0632 12.8266 22.4 14.429 22.4 16.0994C22.4 17.7698 23.064 19.373 24.2448 20.5538C25.4264 21.7354 27.0288 22.3994 28.7 22.3994C30.3712 22.3994 31.9728 21.7354 33.1544 20.5538C34.336 19.3722 35 17.7698 35 16.0994C34.9984 14.429 34.3336 12.8274 33.1528 11.6466C31.972 10.4658 30.3704 9.80101 28.7 9.79941Z" fill="#36D6AD"/>
<path d="M42.3703 43.4011H15.0296C14.4616 43.4003 14.0008 42.9395 14 42.3715V39.9011C14 36.0027 15.5488 32.2635 18.3056 29.5068C21.0624 26.75 24.8016 25.2012 28.7 25.2012C32.5983 25.2012 36.3375 26.75 39.0943 29.5068C41.8511 32.2635 43.3999 36.0027 43.3999 39.9011V42.3715C43.3991 42.9395 42.9383 43.4003 42.3703 43.4011ZM15.4 42.0011H41.9999V39.9011C41.9999 36.3739 40.5991 32.9907 38.1047 30.4972C35.6103 28.0028 32.2279 26.6012 28.7008 26.6012C25.1736 26.6012 21.7904 28.0028 19.296 30.4972C16.8016 32.9915 15.4008 36.3739 15.4008 39.9011V42.0011H15.4Z" fill="#36D6AD"/>
</svg>
